<?xml version="1.0" encoding="UTF-8"?>
<svg xmlns="http://www.w3.org/2000/svg" viewBox="0 0 960 620" font-family="-apple-system, BlinkMacSystemFont, 'Segoe UI', Helvetica, Arial, sans-serif" font-size="13">
  <defs>
    <marker id="arrow" viewBox="0 0 10 10" refX="9" refY="5" markerWidth="8" markerHeight="8" orient="auto-start-reverse">
      <path d="M 0 0 L 10 5 L 0 10 z" fill="#334155"/>
    </marker>
    <marker id="arrow-blue" viewBox="0 0 10 10" refX="9" refY="5" markerWidth="8" markerHeight="8" orient="auto-start-reverse">
      <path d="M 0 0 L 10 5 L 0 10 z" fill="#2563eb"/>
    </marker>
    <marker id="arrow-green" viewBox="0 0 10 10" refX="9" refY="5" markerWidth="8" markerHeight="8" orient="auto-start-reverse">
      <path d="M 0 0 L 10 5 L 0 10 z" fill="#15803d"/>
    </marker>
    <marker id="arrow-red" viewBox="0 0 10 10" refX="9" refY="5" markerWidth="8" markerHeight="8" orient="auto-start-reverse">
      <path d="M 0 0 L 10 5 L 0 10 z" fill="#b91c1c"/>
    </marker>
  </defs>

  <!-- Title -->
  <text x="480" y="34" text-anchor="middle" font-size="17" font-weight="600" fill="#0f172a">Secure Access — how the two mechanisms cooperate</text>

  <!-- ============ CONTROL PLANE ============ -->
  <rect x="40" y="60" width="880" height="170" rx="10" fill="#eff6ff" stroke="#bfdbfe"/>
  <text x="60" y="82" font-size="12" font-weight="600" fill="#1d4ed8">Control plane</text>

  <!-- Client -->
  <rect x="80" y="105" width="170" height="90" rx="8" fill="#ffffff" stroke="#94a3b8"/>
  <text x="165" y="135" text-anchor="middle" font-weight="600" fill="#0f172a">Client / SDK</text>
  <text x="165" y="160" text-anchor="middle" font-size="12" fill="#475569">CreateSandbox</text>
  <text x="165" y="178" text-anchor="middle" font-size="12" fill="#475569">GetEndpoint</text>

  <!-- Server -->
  <rect x="395" y="105" width="200" height="90" rx="8" fill="#ffffff" stroke="#2563eb" stroke-width="1.5"/>
  <text x="495" y="135" text-anchor="middle" font-weight="600" fill="#1d4ed8">opensandbox-server</text>
  <text x="495" y="160" text-anchor="middle" font-size="12" fill="#475569">issue token</text>
  <text x="495" y="178" text-anchor="middle" font-size="12" fill="#475569">sign short-lived URL</text>

  <!-- Keys -->
  <rect x="740" y="105" width="150" height="90" rx="8" fill="#ffffff" stroke="#94a3b8"/>
  <text x="815" y="135" text-anchor="middle" font-weight="600" fill="#0f172a">Signing keys</text>
  <text x="815" y="160" text-anchor="middle" font-size="12" fill="#475569">active_key + keys[]</text>
  <text x="815" y="178" text-anchor="middle" font-size="11" fill="#64748b">shared with ingress</text>

  <!-- arrows -->
  <line x1="250" y1="150" x2="390" y2="150" stroke="#2563eb" stroke-width="1.5" marker-end="url(#arrow-blue)"/>
  <line x1="595" y1="150" x2="735" y2="150" stroke="#2563eb" stroke-width="1.5" marker-end="url(#arrow-blue)"/>

  <!-- return arrow -->
  <path d="M 495 195 Q 330 235 250 175" fill="none" stroke="#2563eb" stroke-width="1.5" stroke-dasharray="4 3" marker-end="url(#arrow-blue)"/>
  <text x="370" y="222" text-anchor="middle" font-size="11" fill="#1d4ed8">SecureAccessToken and/or signed URL</text>

  <!-- ============ DATA PLANE ============ -->
  <rect x="40" y="260" width="880" height="330" rx="10" fill="#f0fdf4" stroke="#bbf7d0"/>
  <text x="60" y="282" font-size="12" font-weight="600" fill="#15803d">Data plane</text>

  <!-- Caller -->
  <rect x="80" y="315" width="170" height="90" rx="8" fill="#ffffff" stroke="#94a3b8"/>
  <text x="165" y="345" text-anchor="middle" font-weight="600" fill="#0f172a">Caller</text>
  <text x="165" y="370" text-anchor="middle" font-size="12" fill="#475569">sends header</text>
  <text x="165" y="388" text-anchor="middle" font-size="12" fill="#475569">or signed URL</text>

  <!-- Ingress box -->
  <rect x="310" y="300" width="370" height="290" rx="8" fill="#ffffff" stroke="#15803d" stroke-width="1.5"/>
  <text x="495" y="325" text-anchor="middle" font-weight="600" fill="#15803d">ingress gateway</text>

  <!-- Decision -->
  <rect x="335" y="345" width="320" height="46" rx="6" fill="#f0fdf4" stroke="#86efac"/>
  <text x="495" y="373" text-anchor="middle" font-weight="600" fill="#166534">Header present?</text>

  <!-- Header branch -->
  <rect x="335" y="415" width="150" height="70" rx="6" fill="#ffffff" stroke="#86efac"/>
  <text x="410" y="440" text-anchor="middle" font-weight="600" fill="#166534">yes</text>
  <text x="410" y="462" text-anchor="middle" font-size="12" fill="#475569">constant-time</text>
  <text x="410" y="478" text-anchor="middle" font-size="12" fill="#475569">compare</text>

  <!-- Signed branch -->
  <rect x="505" y="415" width="150" height="70" rx="6" fill="#ffffff" stroke="#86efac"/>
  <text x="580" y="440" text-anchor="middle" font-weight="600" fill="#166534">no</text>
  <text x="580" y="462" text-anchor="middle" font-size="12" fill="#475569">verify signature</text>
  <text x="580" y="478" text-anchor="middle" font-size="12" fill="#475569">check expires</text>

  <line x1="450" y1="391" x2="410" y2="413" stroke="#15803d" stroke-width="1.2" marker-end="url(#arrow-green)"/>
  <line x1="540" y1="391" x2="580" y2="413" stroke="#15803d" stroke-width="1.2" marker-end="url(#arrow-green)"/>

  <!-- Outcomes -->
  <rect x="335" y="500" width="150" height="38" rx="6" fill="#dcfce7" stroke="#22c55e"/>
  <text x="410" y="524" text-anchor="middle" font-weight="600" fill="#14532d">match → allow</text>

  <rect x="505" y="500" width="150" height="38" rx="6" fill="#dcfce7" stroke="#22c55e"/>
  <text x="580" y="524" text-anchor="middle" font-weight="600" fill="#14532d">valid → allow</text>

  <!-- failure notes (kept inside ingress frame) -->
  <text x="410" y="562" text-anchor="middle" font-size="11" fill="#b91c1c">mismatch → 401</text>
  <text x="580" y="562" text-anchor="middle" font-size="11" fill="#b91c1c">expired / bad sig → 401</text>
  <text x="495" y="580" text-anchor="middle" font-size="10" fill="#64748b">header branch is fail-fast — no fallback</text>

  <line x1="410" y1="485" x2="410" y2="498" stroke="#15803d" stroke-width="1.2" marker-end="url(#arrow-green)"/>
  <line x1="580" y1="485" x2="580" y2="498" stroke="#15803d" stroke-width="1.2" marker-end="url(#arrow-green)"/>

  <!-- Sandbox -->
  <rect x="720" y="380" width="170" height="110" rx="8" fill="#ffffff" stroke="#94a3b8"/>
  <text x="805" y="410" text-anchor="middle" font-weight="600" fill="#0f172a">Sandbox</text>
  <text x="805" y="435" text-anchor="middle" font-size="12" fill="#475569">receives cleaned</text>
  <text x="805" y="453" text-anchor="middle" font-size="12" fill="#475569">request</text>
  <text x="805" y="475" text-anchor="middle" font-size="11" fill="#64748b">(no auth header)</text>

  <!-- caller -> ingress -->
  <line x1="250" y1="360" x2="308" y2="360" stroke="#334155" stroke-width="1.5" marker-end="url(#arrow)"/>

  <!-- ingress allow -> sandbox -->
  <path d="M 680 435 L 718 435" stroke="#15803d" stroke-width="1.5" marker-end="url(#arrow-green)"/>
</svg>
